<svg width="24" height="23" viewBox="0 0 24 23" fill="none" xmlns="http://www.w3.org/2000/svg">
<g clip-path="url(#clip0_841_2223)">
<path fill-rule="evenodd" clip-rule="evenodd" d="M12.0389 2.77267C11.3756 2.76069 10.7164 2.87964 10.0991 3.1227C9.48177 3.36577 8.91846 3.72818 8.44137 4.1892C7.96429 4.65022 7.5828 5.20079 7.31874 5.80941C7.05468 6.41803 6.91324 7.07275 6.9025 7.7361V14.6735C6.9025 15.0943 6.73532 15.4979 6.43774 15.7955C6.14016 16.0931 5.73656 16.2603 5.31572 16.2603H3.33225C2.70099 16.2603 2.09559 16.0095 1.64922 15.5631C1.20285 15.1168 0.952087 14.5114 0.952087 13.8801L0.952087 10.7065C0.952087 10.0753 1.20285 9.46988 1.64922 9.02352C2.09559 8.57715 2.70099 8.32638 3.33225 8.32638H4.52233V7.70754C4.53681 6.7323 4.74326 5.76946 5.1299 4.87401C5.51653 3.97857 6.07578 3.16806 6.77569 2.48877C7.47561 1.80949 8.30248 1.27474 9.20909 0.915054C10.1157 0.555373 11.0843 0.37781 12.0595 0.392506C13.0348 0.37781 14.0033 0.555373 14.9099 0.915054C15.8166 1.27474 16.6434 1.80949 17.3433 2.48877C18.0433 3.16806 18.6025 3.97857 18.9891 4.87401C19.3758 5.76946 19.5822 6.7323 19.5967 7.70754V8.32638H20.7868C21.418 8.32638 22.0234 8.57715 22.4698 9.02352C22.9162 9.46988 23.1669 10.0753 23.1669 10.7065V13.8801C23.1669 14.5114 22.9162 15.1168 22.4698 15.5631C22.0234 16.0095 21.418 16.2603 20.7868 16.2603H19.5967V17.0536C19.5969 18.1259 19.2023 19.1607 18.4882 19.9606C17.774 20.7605 16.7904 21.2694 15.725 21.3903C15.5181 21.7597 15.2163 22.0673 14.851 22.2812C14.4856 22.4951 14.0697 22.6077 13.6463 22.6074H11.2661C10.6349 22.6074 10.0295 22.3566 9.5831 21.9102C9.13673 21.4639 8.88597 20.8585 8.88597 20.2272C8.88597 19.5959 9.13673 18.9905 9.5831 18.5442C10.0295 18.0978 10.6349 17.847 11.2661 17.847H13.6463C14.5063 17.847 15.26 18.3024 15.6774 18.9863C16.1147 18.8858 16.5051 18.64 16.7846 18.2889C17.0642 17.9379 17.2165 17.5024 17.2165 17.0536V7.73452C17.2057 7.06775 17.0627 6.40976 16.796 5.79857C16.5293 5.18739 16.144 4.63514 15.6626 4.17374C15.1811 3.71235 14.613 3.35096 13.991 3.11047C13.369 2.86999 12.7055 2.75517 12.0389 2.77267Z" fill="url(#paint0_linear_841_2223)"/>
</g>
<defs>
<linearGradient id="paint0_linear_841_2223" x1="0.952087" y1="11.4995" x2="23.1669" y2="11.4995" gradientUnits="userSpaceOnUse">
<stop stop-color="#012D37"/>
<stop offset="0.495" stop-color="#635E5B"/>
<stop offset="1" stop-color="#001637"/>
</linearGradient>
<clipPath id="clip0_841_2223">
<rect width="22.2149" height="22.2149" fill="white" transform="translate(0.952087 0.392578)"/>
</clipPath>
</defs>
</svg>
