<svg width="32" height="32" viewBox="0 0 32 32" fill="none" xmlns="http://www.w3.org/2000/svg">
<path d="M6.66669 24C5.55558 24 4.61113 23.6111 3.83335 22.8333C3.05558 22.0555 2.66669 21.1111 2.66669 20C2.66669 18.8889 3.05558 17.9444 3.83335 17.1666C4.61113 16.3889 5.55558 16 6.66669 16C7.53335 16 8.3058 16.2502 8.98402 16.7506C9.66224 17.2511 10.1342 17.8898 10.4 18.6666H17.4667C17.7111 17.1555 18.3391 15.8333 19.3507 14.7C20.3622 13.5666 21.6009 12.7778 23.0667 12.3333L21.2 3.99998H17.3334C16.9556 3.99998 16.6391 3.87198 16.384 3.61598C16.1289 3.35998 16.0009 3.04354 16 2.66665C15.9991 2.28976 16.1271 1.97331 16.384 1.71731C16.6409 1.46131 16.9574 1.33331 17.3334 1.33331H21.2C21.8222 1.33331 22.3778 1.5222 22.8667 1.89998C23.3556 2.27776 23.6667 2.77776 23.8 3.39998L26.1 13.7C26.1445 13.9444 26.0889 14.1666 25.9334 14.3666C25.7778 14.5666 25.5778 14.6666 25.3334 14.6666C23.9334 14.6666 22.7276 15.1391 21.716 16.084C20.7045 17.0289 20.1436 18.1898 20.0334 19.5666C19.9889 20.0778 19.7889 20.5 19.4334 20.8333C19.0778 21.1666 18.6445 21.3333 18.1334 21.3333H10.4C10.1334 22.1111 9.66135 22.7502 8.98402 23.2506C8.30669 23.7511 7.53424 24.0009 6.66669 24ZM25.3334 24C24.2222 24 23.2778 23.6111 22.5 22.8333C21.7222 22.0555 21.3334 21.1111 21.3334 20C21.3334 18.8889 21.7222 17.9444 22.5 17.1666C23.2778 16.3889 24.2222 16 25.3334 16C26.4445 16 27.3889 16.3889 28.1667 17.1666C28.9445 17.9444 29.3334 18.8889 29.3334 20C29.3334 21.1111 28.9445 22.0555 28.1667 22.8333C27.3889 23.6111 26.4445 24 25.3334 24ZM17.3334 28V29.6C17.3334 29.8444 17.2276 30.0333 17.016 30.1666C16.8045 30.3 16.588 30.3111 16.3667 30.2L10.6 27.3C10.4445 27.2111 10.3831 27.0831 10.416 26.916C10.4489 26.7489 10.5547 26.6658 10.7334 26.6666H14.6667V25.0666C14.6667 24.8222 14.7725 24.6333 14.984 24.5C15.1956 24.3666 15.412 24.3555 15.6334 24.4666L21.4 27.3666C21.5556 27.4555 21.6169 27.5835 21.584 27.7506C21.5511 27.9178 21.4454 28.0009 21.2667 28H17.3334Z" fill="#9DB2CE"/>
</svg>
