<svg width="39" height="39" viewBox="0 0 39 39" fill="none" xmlns="http://www.w3.org/2000/svg">
<path d="M9.75 11.375H17.875C18.306 11.375 18.7193 11.5462 19.024 11.851C19.3288 12.1557 19.5 12.569 19.5 13C19.5 13.431 19.3288 13.8443 19.024 14.149C18.7193 14.4538 18.306 14.625 17.875 14.625H9.75C9.31902 14.625 8.9057 14.4538 8.60095 14.149C8.2962 13.8443 8.125 13.431 8.125 13C8.125 12.569 8.2962 12.1557 8.60095 11.851C8.9057 11.5462 9.31902 11.375 9.75 11.375ZM21.125 24.375H29.25C29.681 24.375 30.0943 24.5462 30.399 24.851C30.7038 25.1557 30.875 25.569 30.875 26C30.875 26.431 30.7038 26.8443 30.399 27.149C30.0943 27.4538 29.681 27.625 29.25 27.625H21.125C20.694 27.625 20.2807 27.4538 19.976 27.149C19.6712 26.8443 19.5 26.431 19.5 26C19.5 25.569 19.6712 25.1557 19.976 24.851C20.2807 24.5462 20.694 24.375 21.125 24.375ZM9.75 17.875H29.25C29.681 17.875 30.0943 18.0462 30.399 18.351C30.7038 18.6557 30.875 19.069 30.875 19.5C30.875 19.931 30.7038 20.3443 30.399 20.649C30.0943 20.9538 29.681 21.125 29.25 21.125H9.75C9.31902 21.125 8.9057 20.9538 8.60095 20.649C8.2962 20.3443 8.125 19.931 8.125 19.5C8.125 19.069 8.2962 18.6557 8.60095 18.351C8.9057 18.0462 9.31902 17.875 9.75 17.875Z" fill="#9DB2CE"/>
</svg>
